<svg width="120" height="120" viewBox="0 0 120 120" xmlns="http://www.w3.org/2000/svg">
  <path d="M 10 80 Q 30 70, 50 80 T 90 80 T 130 80" fill="none" stroke="#a855f7" stroke-width="3" opacity="0.6"/>
  <path d="M 10 85 Q 30 75, 50 85 T 90 85 T 130 85" fill="none" stroke="#a855f7" stroke-width="2" opacity="0.4"/>
  <g transform="translate(60,60)">
    <rect x="-25" y="-20" width="50" height="30" fill="#7c3aed" rx="3"/>
    <rect x="-23" y="-18" width="46" height="26" fill="#8b5cf6" rx="2"/>
    <line x1="-15" y1="-10" x2="15" y2="-10" stroke="white" stroke-width="1.5"/>
    <line x1="-15" y1="-5" x2="15" y2="-5" stroke="white" stroke-width="1.5"/>
    <line x1="-15" y1="0" x2="15" y2="0" stroke="white" stroke-width="1.5"/>
    <line x1="-15" y1="5" x2="15" y2="5" stroke="white" stroke-width="1.5"/>
    <line x1="0" y1="-18" x2="0" y2="8" stroke="#6d28d9" stroke-width="1"/>
  </g>
  <g transform="translate(85,35)">
    <rect x="-2" y="-10" width="4" height="20" fill="#f59e0b"/>
    <circle cx="0" cy="-12" r="4" fill="#fbbf24"/>
    <g stroke="#fbbf24" stroke-width="1.5" opacity="0.7">
      <line x1="-8" y1="-12" x2="-12" y2="-12"/>
      <line x1="8" y1="-12" x2="12" y2="-12"/>
      <line x1="0" y1="-20" x2="0" y2="-24"/>
      <line x1="-6" y1="-18" x2="-8" y2="-20"/>
      <line x1="6" y1="-18" x2="8" y2="-20"/>
    </g>
  </g>
  <text x="60" y="100" font-family="Arial, sans-serif" font-size="14" font-weight="bold" fill="rgba(255,255,255,0.95)" text-anchor="middle">Researchopia</text>
</svg>
