<!-- 96x96 icon - Researchopia Logo Design -->
<svg width="96" height="96" viewBox="0 0 96 96" xmlns="http://www.w3.org/2000/svg">
  <!-- Wave patterns -->
  <path d="M8 72 Q24 68 48 72 T88 72" fill="none" stroke="#a855f7" stroke-width="3" opacity="0.6"/>
  <path d="M8 76 Q24 72 48 76 T88 76" fill="none" stroke="#a855f7" stroke-width="2" opacity="0.4"/>
  
  <!-- Main document/book -->
  <rect x="24" y="32" width="48" height="28" rx="3" fill="#7c3aed"/>
  <rect x="25" y="33" width="46" height="26" rx="2" fill="#8b5cf6"/>
  
  <!-- Document content lines -->
  <line x1="32" y1="40" x2="64" y2="40" stroke="white" stroke-width="2"/>
  <line x1="32" y1="46" x2="64" y2="46" stroke="white" stroke-width="2"/>
  <line x1="32" y1="52" x2="56" y2="52" stroke="white" stroke-width="2"/>
  <line x1="32" y1="58" x2="60" y2="58" stroke="white" stroke-width="2"/>
  
  <!-- Vertical divider -->
  <line x1="48" y1="33" x2="48" y2="59" stroke="#6d28d9" stroke-width="1"/>
  
  <!-- Light bulb -->
  <circle cx="72" cy="20" r="8" fill="#fbbf24"/>
  <rect x="69" y="27" width="6" height="8" fill="#f59e0b"/>
  <!-- Light rays -->
  <g stroke="#fbbf24" stroke-width="2" opacity="0.7">
    <line x1="56" y1="20" x2="52" y2="20"/>
    <line x1="88" y1="20" x2="92" y2="20"/>
    <line x1="72" y1="4" x2="72" y2="0"/>
    <line x1="62" y1="10" x2="58" y2="6"/>
    <line x1="82" y1="10" x2="86" y2="6"/>
    <line x1="62" y1="30" x2="58" y2="34"/>
    <line x1="82" y1="30" x2="86" y2="34"/>
  </g>
  
  <!-- Brand text -->
  <text x="48" y="88" font-family="Arial, sans-serif" font-size="10" font-weight="bold" fill="#7c3aed" text-anchor="middle">Researchopia</text>
</svg>